<?xml version="1.0" standalone="no"?>
<!DOCTYPE svg PUBLIC "-//W3C//DTD SVG 20010904//EN"
 "http://www.w3.org/TR/2001/REC-SVG-20010904/DTD/svg10.dtd">
<svg version="1.0" xmlns="http://www.w3.org/2000/svg"
 width="648.000000pt" height="400.000000pt" viewBox="0 0 648.000000 400.000000"
 preserveAspectRatio="xMidYMid meet">

<g transform="translate(0.000000,400.000000) scale(0.100000,-0.100000)"
fill="#000000" stroke="none">
<path d="M5690 3919 c-41 -22 -80 -46 -86 -52 -9 -9 21 -100 122 -367 161
-428 149 -390 131 -390 -8 0 -46 42 -85 93 -38 50 -96 126 -128 167 -33 42
-108 140 -168 218 -60 78 -114 142 -120 142 -19 0 -196 -100 -196 -111 0 -9
188 -560 231 -677 21 -58 24 -82 10 -82 -5 0 -110 141 -232 313 -122 171 -226
316 -230 321 -8 9 -50 -11 -156 -71 l-43 -25 68 -86 c37 -48 134 -172 215
-277 82 -104 188 -240 235 -302 48 -61 92 -112 99 -112 10 -1 225 111 243 126
4 4 -13 57 -149 453 -84 243 -94 283 -65 259 8 -7 115 -140 236 -296 l220
-283 107 58 c59 31 117 64 129 72 l21 15 -83 240 c-47 132 -120 342 -163 467
-43 125 -80 228 -83 228 -3 0 -39 -19 -80 -41z"/>
<path d="M4303 3161 c-139 -75 -256 -140 -259 -144 -6 -6 439 -832 460 -853 8
-9 76 24 261 126 138 77 254 140 259 142 5 2 -3 26 -17 53 -49 95 -32 95 -207
0 -85 -46 -160 -85 -167 -85 -13 0 -123 198 -123 221 0 8 55 45 125 83 69 37
125 72 125 77 0 19 -51 110 -65 115 -7 3 -68 -24 -135 -61 -66 -37 -126 -65
-133 -62 -17 7 -119 197 -114 211 3 6 65 44 138 84 74 40 140 76 148 81 11 7
9 21 -14 80 -15 39 -27 71 -28 71 -1 0 -116 -63 -254 -139z"/>
<path d="M3643 2802 l-83 -46 51 -96 c28 -52 135 -247 236 -433 l185 -337 86
47 c48 25 91 49 96 54 13 12 -453 859 -473 858 -9 -1 -53 -22 -98 -47z"/>
<path d="M3278 2601 c-49 -26 -90 -50 -93 -53 -5 -5 122 -457 196 -697 22 -74
24 -91 7 -90 -7 0 -118 118 -245 262 -128 144 -249 279 -268 300 l-35 38 -88
-47 c-48 -26 -93 -52 -100 -57 -10 -8 70 -93 345 -369 197 -197 362 -358 367
-358 5 0 60 28 122 62 76 41 114 67 114 78 0 9 -49 230 -110 491 -60 261 -110
477 -110 481 0 14 -13 8 -102 -41z"/>
<path d="M2217 2022 c-204 -112 -247 -139 -244 -154 5 -19 444 -827 457 -841
8 -9 510 262 517 279 6 15 -55 124 -69 124 -6 0 -76 -36 -156 -80 -80 -44
-153 -80 -161 -80 -15 0 -131 194 -131 219 0 5 59 42 130 81 72 40 130 74 130
77 0 11 -66 123 -72 123 -4 0 -60 -29 -126 -65 -65 -36 -126 -65 -134 -65 -19
0 -121 182 -116 207 2 8 67 49 145 91 78 43 143 83 143 91 0 26 -43 131 -54
130 -6 0 -123 -62 -259 -137z"/>
<path d="M1480 1604 c-79 -27 -390 -191 -397 -210 -4 -11 437 -828 458 -849
11 -11 177 71 185 91 3 6 -34 81 -81 168 -47 86 -83 161 -80 166 4 6 24 19 45
30 l38 19 119 -75 c65 -42 147 -95 182 -117 l64 -41 51 29 c165 90 160 87 140
102 -10 7 -100 61 -201 119 -101 59 -183 111 -183 116 0 6 15 40 32 76 40 80
43 151 10 225 -71 161 -202 212 -382 151z m117 -174 c33 -19 59 -60 74 -114
13 -43 -6 -100 -43 -131 -41 -35 -127 -78 -143 -71 -16 6 -135 223 -135 246 0
10 21 28 51 45 91 49 145 56 196 25z"/>
<path d="M645 1136 c-27 -7 -72 -22 -100 -35 -87 -38 -335 -174 -335 -184 0
-8 455 -845 465 -855 7 -7 185 93 185 104 0 6 -31 69 -70 139 -38 70 -70 135
-70 144 0 10 33 34 81 61 156 86 234 194 233 322 0 56 -6 78 -37 142 -73 147
-192 202 -352 162z m86 -189 c19 -12 46 -45 61 -72 46 -83 33 -157 -34 -208
-49 -37 -119 -70 -129 -60 -16 17 -149 264 -149 279 0 21 136 84 181 84 21 0
50 -9 70 -23z"/>
</g>
</svg>
